# xmcd
#
# Track frame offsets:
#	150
#	17803
#	32608
#	47633
#	60189
#	72991
#	88210
#	101762
#	119348
#	132934
#	149900
#	163292
#
# Disc length: 2333 seconds
#
# Revision: 0
# Processed by: cddbd v1.4PL0 Copyright (c) Steve Scherf et al.
# Submitted via: EasyCDDAExtractor 4.6.0.1
#
DISCID=af091b0c
DTITLE=Banda Arkangel R-15 - Esperando Un Angel
DYEAR=1999
DGENRE=Latin
TTITLE0=Con Quien Estaras
TTITLE1=Te Suplique Muchas Veces
TTITLE2=El Travesti
TTITLE3=Cachito De Luna
TTITLE4=Esperando Un Angel
TTITLE5=Dime Que Si
TTITLE6=No Vales Nada
TTITLE7=Con Quien Estaras (POP)
TTITLE8=Tres Brincos
TTITLE9=Otra Ves Me Sucedio
TTITLE10=Amor Infiel
TTITLE11=La Ramona
EXTD=
EXTT0=
EXTT1=
EXTT2=
EXTT3=
EXTT4=
EXTT5=
EXTT6=
EXTT7=
EXTT8=
EXTT9=
EXTT10=
EXTT11=
PLAYORDER=
